<svg width="511" height="127" viewBox="0 0 511 127" fill="none" xmlns="http://www.w3.org/2000/svg">
<path d="M45.71 104.82C70.96 104.82 91.42 84.23 91.42 58.82C91.42 33.41 70.96 12.83 45.71 12.83C20.46 12.83 0 33.43 0 58.83C0 84.23 20.47 104.83 45.71 104.83V104.82Z" fill="#FEE934"/>
<path d="M491.799 59.57C491.799 49.92 485.419 43.87 476.579 43.87C467.739 43.87 461.359 49.92 461.359 59.57C461.359 69.22 467.739 75.24 476.579 75.24C485.419 75.24 491.799 69.19 491.799 59.57ZM510.999 27.43V91.71H491.799V85.66C487.579 90.53 481.319 93.51 472.759 93.51C455.999 93.51 442.199 78.74 442.199 59.51C442.199 40.28 455.999 25.51 472.759 25.51C481.329 25.51 487.579 28.46 491.799 33.36V27.43H510.999Z" fill="white"/>
<path d="M170.709 59.57C170.709 49.92 164.329 43.87 155.489 43.87C146.649 43.87 140.269 49.92 140.269 59.57C140.269 69.22 146.649 75.24 155.489 75.24C164.329 75.24 170.709 69.19 170.709 59.57ZM189.909 27.43V91.71H170.709V85.66C166.489 90.53 160.229 93.51 151.669 93.51C134.909 93.51 121.109 78.74 121.109 59.51C121.109 40.28 134.909 25.51 151.669 25.51C160.239 25.51 166.489 28.46 170.709 33.36V27.43H189.909Z" fill="white"/>
<path d="M254.86 126.42H235.3V95.13C222.07 94.01 212.18 90.33 205.61 84.09C199.04 77.85 195.76 69.66 195.76 59.5C195.76 49.34 199.06 41.15 205.68 34.91C212.29 28.67 222.16 24.99 235.3 23.87V0H254.86V23.89C268.08 25.01 277.98 28.69 284.55 34.93C291.12 41.17 294.4 49.37 294.4 59.52C294.4 69.67 291.12 77.87 284.55 84.11C277.98 90.35 268.09 94.03 254.86 95.15V126.44V126.42ZM220.5 45.96C217.52 49.03 216.03 53.5 216.03 59.37C216.03 65.24 217.52 69.78 220.5 72.99C223.13 75.83 227.29 77.74 232.97 78.72C234.19 78.93 235.31 77.98 235.31 76.74V42.52C235.31 41.29 234.21 40.35 233 40.54C227.3 41.44 223.14 43.24 220.5 45.96ZM269.74 72.99C272.77 69.78 274.28 65.24 274.28 59.37C274.28 53.5 272.76 49.03 269.74 45.96C267.06 43.24 262.87 41.44 257.17 40.54C255.96 40.35 254.86 41.3 254.86 42.52V76.75C254.86 77.99 255.98 78.94 257.2 78.73C262.89 77.74 267.06 75.83 269.74 73V72.99Z" fill="white"/>
<path d="M319.96 93.88H300.26V25.15H320.52V66.78L343.01 25.15H364.24V93.88H344.26V50.15L319.95 93.87L319.96 93.88Z" fill="white"/>
<path d="M392.04 93.88H371.92V25.15H392.04V50.43H415.93V25.15H436.05V93.88H415.93V66.64H392.04V93.88Z" fill="white"/>
</svg>
