<svg preserveAspectRatio="none" width="100%" height="100%" overflow="visible" style="display: block;" viewBox="0 0 98.5901 24" fill="none" xmlns="http://www.w3.org/2000/svg">
<g id="logo">
<path id="Union" fill-rule="evenodd" clip-rule="evenodd" d="M63.0239 2.77056C63.0239 4.3007 61.7841 5.54111 60.2548 5.54111C58.7255 5.54111 57.4857 4.3007 57.4857 2.77056C57.4857 1.24042 58.7255 1.52596e-06 60.2548 1.52596e-06C61.7841 1.52596e-06 63.0239 1.24042 63.0239 2.77056ZM55.8503 10.9791V7.01233H55.8434H52.3253V6.71672C52.3047 4.53052 53.5897 4.50989 55.5893 4.50989H55.8434V0.570615H54.7235C52.4284 0.570615 47.8864 0.921232 47.8864 6.24236V7.01233H45.667V10.9791H47.8864V21.8413H52.3321V10.9791H55.8503ZM36.6587 21.8001C37.4214 21.6007 38.1635 21.2158 38.8713 20.6314L39.0773 21.8414H43.3858V7.01922H39.1048L38.8713 8.22919C38.301 7.69983 37.6619 7.32171 36.9403 7.08797C36.2258 6.85422 35.4906 6.73735 34.7415 6.73735C33.4429 6.73735 32.3297 6.92297 31.4021 7.30109C30.4744 7.67233 29.691 8.20169 29.0383 8.88918C28.3924 9.57666 27.8908 10.3879 27.5336 11.3366C27.1831 12.2853 27.0044 13.3166 27.0044 14.444C27.0044 15.5165 27.1625 16.5064 27.4648 17.4278C27.7671 18.349 28.207 19.1602 28.7909 19.8614C29.3682 20.5626 30.1378 21.1127 31.0792 21.5044C32.0206 21.8963 33.0924 22.0957 34.295 22.0957C35.1058 22.0957 35.8891 21.9994 36.6587 21.8001ZM36.7274 17.792C36.2876 17.9984 35.7791 18.1015 35.2087 18.1015V18.1083C34.6179 18.1083 34.0956 18.0052 33.6421 17.799C33.1887 17.5927 32.8176 17.3177 32.5359 16.9809C32.2473 16.644 32.0274 16.2521 31.883 15.8121C31.7388 15.3721 31.6631 14.8977 31.6631 14.389C31.6631 13.9215 31.7319 13.4747 31.8693 13.0416C32.0068 12.6085 32.2266 12.2235 32.5221 11.8866C32.8176 11.5497 33.1887 11.2816 33.6421 11.096C34.0956 10.9104 34.6179 10.8141 35.2087 10.8141C36.37 10.8141 37.2358 11.1579 37.8199 11.8522C38.4039 12.5466 38.6926 13.3991 38.6926 14.4097C38.6926 14.9184 38.6169 15.3927 38.4727 15.8327C38.3215 16.2728 38.1086 16.6577 37.8199 16.9878C37.5313 17.3177 37.1672 17.5858 36.7274 17.792ZM62.4606 21.8413H58.0422V7.01234H62.4606V21.8413ZM70.3617 8.63519C71.0129 7.9237 71.7255 7.43086 72.4928 7.14984C73.2623 6.86798 74.0044 6.71672 74.7122 6.70297C75.6467 6.70297 76.4713 6.8611 77.172 7.17046C77.8729 7.47983 78.4707 7.90606 78.9587 8.44918C79.5016 9.10917 79.8795 9.87227 80.0855 10.7591C80.2917 11.6391 80.3948 12.6153 80.3948 13.6878V21.8482H75.949V14.0522C75.949 13.6397 75.9078 13.2341 75.839 12.8422C75.7634 12.4503 75.626 12.0928 75.42 11.7766C75.2138 11.4604 74.9321 11.206 74.5747 11.0341C74.2174 10.8554 73.7777 10.766 73.2555 10.766C72.7332 10.766 72.2728 10.8829 71.8744 11.1166C71.4826 11.3504 71.1803 11.6391 70.9741 11.9897C70.7681 12.3403 70.6237 12.7185 70.5412 13.1309C70.4588 13.5434 70.4176 13.9559 70.4176 14.3684V21.8552H65.9994V7.01234H70.1358L70.3617 8.63519ZM94.0756 20.6314C93.3679 21.2158 92.6258 21.6007 91.863 21.8001C91.0935 21.9994 90.3101 22.0957 89.4993 22.0957C88.2969 22.0957 87.2249 21.8963 86.2835 21.5044C85.3421 21.1127 84.5726 20.5626 83.9954 19.8614C83.4113 19.1602 82.9716 18.349 82.6693 17.4278C82.3668 16.5064 82.2089 15.5165 82.2089 14.444C82.2089 13.3166 82.3874 12.2853 82.7379 11.3366C83.0952 10.3879 83.5968 9.57666 84.2428 8.88918C84.8955 8.20169 85.6789 7.67233 86.6065 7.30109C87.5341 6.92297 88.6473 6.73735 89.946 6.73735C90.6949 6.73735 91.4301 6.85422 92.1448 7.08797C92.8664 7.32171 93.5053 7.69983 94.0756 8.22919L94.3093 7.01922H98.5901V21.8414H94.2818L94.0756 20.6314ZM90.4132 18.1015C90.9835 18.1015 91.4921 17.9984 91.9318 17.792C92.3715 17.5858 92.7358 17.3177 93.0243 16.9878C93.3129 16.6577 93.5259 16.2728 93.677 15.8327C93.8214 15.3927 93.897 14.9184 93.897 14.4097C93.897 13.3991 93.6084 12.5466 93.0243 11.8522C92.4403 11.1579 91.5745 10.8141 90.4132 10.8141C89.8223 10.8141 89.3001 10.9104 88.8466 11.096C88.393 11.2816 88.0219 11.5497 87.7264 11.8866C87.4311 12.2235 87.2111 12.6085 87.0737 13.0416C86.9363 13.4747 86.8676 13.9215 86.8676 14.389C86.8676 14.8977 86.9432 15.3721 87.0875 15.8121C87.2317 16.2521 87.4516 16.644 87.7402 16.9809C88.0219 17.3177 88.393 17.5927 88.8466 17.799C89.3001 18.0052 89.8223 18.1083 90.4132 18.1083V18.1015Z" fill="var(--fill-0, white)"/>
<path id="Vector" d="M10.1146 24C15.7008 24 20.2293 19.4692 20.2293 13.8803C20.2293 8.29128 15.7008 3.76051 10.1146 3.76051C4.52847 3.76051 3.81476e-06 8.29128 3.81476e-06 13.8803C3.81476e-06 19.4692 4.52847 24 10.1146 24Z" fill="var(--fill-0, #FFEC00)"/>
</g>
</svg>
