<svg width="80" height="80" viewBox="0 0 80 80" fill="none" xmlns="http://www.w3.org/2000/svg">
<path d="M39.9999 80C62.0915 80 80 62.0913 80 40.0001C80 17.9086 62.0915 0 39.9999 0C17.9086 0 0 17.9086 0 40.0001C0 62.0913 17.9086 80 39.9999 80Z" fill="#FFEC00"/>
<path d="M64.6462 29.2534L59.8015 29.5366C61.7271 31.6171 63.1242 33.9816 63.9939 36.6294C64.8636 39.2774 65.2986 41.9891 65.2986 44.7632C65.2985 48.4828 64.6776 51.7611 63.4353 54.5981C62.1308 57.3722 60.36 59.7048 58.1238 61.5962C55.8254 63.4245 53.1855 64.8116 50.2039 65.7573C47.1601 66.64 43.8676 67.0815 40.3269 67.0815C35.2954 67.0815 30.854 66.1676 27.0027 64.3394C23.1513 62.4479 20.1378 59.7362 17.9636 56.2056C15.7897 52.675 14.7029 48.3878 14.7029 43.3442C14.7029 40.6332 15.1686 38.0482 16.1003 35.5894C16.97 33.1305 18.3364 31.0811 20.2 29.4419L15.5417 28.9692V16.4858H64.6462V29.2534ZM40.0476 32.5864C37.5629 32.5864 35.3264 33.0597 33.3386 34.0054C31.2887 34.888 29.6732 36.2434 28.4929 38.0718C27.2505 39.8371 26.6296 42.0756 26.6296 44.7866C26.6297 47.5605 27.2507 49.83 28.4929 51.5952C29.7353 53.3605 31.3815 54.6535 33.4314 55.4731C35.4191 56.2927 37.5934 56.7026 39.9539 56.7026C42.3144 56.7026 44.5508 56.2928 46.6628 55.4731C48.7128 54.6535 50.3896 53.3605 51.6941 51.5952C52.9364 49.8299 53.5583 47.4973 53.5583 44.5972C53.5583 41.9493 52.9364 39.7423 51.6941 37.9771C50.4517 36.2119 48.8054 34.888 46.7556 34.0054C44.7059 33.0598 42.4699 32.5865 40.0476 32.5864Z" fill="black"/>
</svg>
